<?xml version="1.0" encoding="UTF-8"?>
<svg width="700pt" height="700pt" version="1.1" viewBox="0 0 700 700" xmlns="http://www.w3.org/2000/svg">
 <path d="m536.67 256.67v140c0 18.562-7.375 36.367-20.504 49.496-13.129 13.129-30.934 20.504-49.496 20.504h-233.34c-18.562 0-36.367-7.375-49.496-20.504-13.129-13.129-20.504-30.934-20.504-49.496v-140h373.34m23.332-23.332-420-0.003907v163.34c0 24.754 9.832 48.492 27.336 65.996 17.504 17.504 41.242 27.336 65.996 27.336h233.34c24.754 0 48.492-9.832 65.996-27.336 17.504-17.504 27.336-41.242 27.336-65.996v-163.34zm-93.332-93.336c18.562 0 36.367 7.375 49.496 20.504 13.129 13.125 20.504 30.93 20.504 49.496v23.332h-373.34v-23.332c0-18.566 7.375-36.371 20.504-49.496 13.129-13.129 30.934-20.504 49.496-20.504h233.34m0-23.332h-233.34c-24.754 0-48.492 9.832-65.996 27.336-17.504 17.504-27.336 41.242-27.336 65.996v46.668h420v-46.668c0-24.754-9.832-48.492-27.336-65.996-17.504-17.504-41.242-27.336-65.996-27.336zm-198.34 55.531v-89.598c0-6.4453-5.2227-11.668-11.664-11.668-6.4453 0-11.668 5.2227-11.668 11.668v89.598c0 6.4453 5.2227 11.668 11.668 11.668 6.4414 0 11.664-5.2227 11.664-11.668zm93.332 0 0.003907-89.598c0-6.4453-5.2266-11.668-11.668-11.668s-11.668 5.2227-11.668 11.668v89.598c0 6.4453 5.2266 11.668 11.668 11.668s11.668-5.2227 11.668-11.668zm93.332 0 0.003906-89.598c0-6.4453-5.2227-11.668-11.668-11.668-6.4414 0-11.664 5.2227-11.664 11.668v89.598c0 6.4453 5.2227 11.668 11.664 11.668 6.4453 0 11.668-5.2227 11.668-11.668z"/>
</svg>
