<?xml version="1.0" encoding="UTF-8"?>
<svg width="700pt" height="700pt" version="1.1" viewBox="0 0 700 700" xmlns="http://www.w3.org/2000/svg">
 <g>
  <path d="m160.11 525h379.75c15.109-1.5117 29.023-8.8945 38.746-20.559 9.7266-11.66 14.488-26.676 13.262-41.812v-207.76c0.33594-17.801-6.3438-35.02-18.602-47.934l-179.15-153.68c-11.516-11.574-27.117-18.156-43.445-18.324-16.324-0.16797-32.062 6.0938-43.809 17.43l-180.16 154.58c-12.258 12.914-18.938 30.133-18.602 47.934v207.76c-1.2266 15.137 3.5352 30.152 13.262 41.812 9.7266 11.664 23.637 19.047 38.75 20.559zm-17.012-270.13c-0.30859-8.0781 2.3242-15.992 7.4023-22.277l180.25-154.58c5.0391-5.0664 11.895-7.9062 19.039-7.8945 7.7734 0.0625 15.203 3.2109 20.652 8.75l178.61 153.16c5.375 6.3398 8.2109 14.445 7.9609 22.75v207.85c0 16.117-8.9609 27.371-17.012 27.371h-379.89c-8.0508 0-17.012-11.254-17.012-27.371z"/>
  <path d="m350 455c4.6406 0 9.0938-1.8438 12.375-5.125s5.125-7.7344 5.125-12.375v-87.5c0-6.2539-3.3359-12.031-8.75-15.156s-12.086-3.125-17.5 0-8.75 8.9023-8.75 15.156v87.5c0 4.6406 1.8438 9.0938 5.125 12.375s7.7344 5.125 12.375 5.125z"/>
 </g>
</svg>
