<?xml version="1.0" encoding="UTF-8"?>
<svg width="700pt" height="700pt" version="1.1" viewBox="0 0 700 700" xmlns="http://www.w3.org/2000/svg">
 <g>
  <path d="m350 35c-64.977 0-127.29 25.812-173.24 71.758-45.945 45.949-71.758 108.27-71.758 173.24s25.812 127.29 71.758 173.24c45.949 45.945 108.27 71.758 173.24 71.758s127.29-25.812 173.24-71.758c45.945-45.949 71.758-108.27 71.758-173.24-0.070312-64.957-25.902-127.23-71.836-173.16-45.93-45.934-108.21-71.766-173.16-71.836zm0 455c-55.695 0-109.11-22.125-148.49-61.508-39.383-39.383-61.508-92.797-61.508-148.49s22.125-109.11 61.508-148.49c39.383-39.383 92.797-61.508 148.49-61.508s109.11 22.125 148.49 61.508c39.383 39.383 61.508 92.797 61.508 148.49-0.058594 55.676-22.203 109.05-61.574 148.43-39.371 39.371-92.75 61.516-148.43 61.574z"/>
  <path d="m350 157.5c-4.6406 0-9.0938 1.8438-12.375 5.125s-5.125 7.7344-5.125 12.375v97.004l-63.945 55.246c-3.6562 2.9922-5.9453 7.3359-6.3516 12.043s1.1094 9.375 4.1992 12.949c3.0898 3.5742 7.4961 5.7461 12.211 6.0195 4.7188 0.27734 9.3438-1.3633 12.832-4.5508l70-60.551c3.8242-3.3047 6.0312-8.1055 6.0547-13.16v-105c0-4.6406-1.8438-9.0938-5.125-12.375s-7.7344-5.125-12.375-5.125z"/>
 </g>
</svg>
